<svg id="visual" viewBox="0 0 960 540" width="960" height="540" xmlns="http://www.w3.org/2000/svg" xmlns:xlink="http://www.w3.org/1999/xlink" version="1.1"><path d="M813 0L615 0L615 42L934 42L934 83L871 83L871 125L800 125L800 166L720 166L720 208L770 208L770 249L883 249L883 291L827 291L827 332L679 332L679 374L786 374L786 415L928 415L928 457L721 457L721 498L776 498L776 540L0 540L0 498L0 498L0 457L0 457L0 415L0 415L0 374L0 374L0 332L0 332L0 291L0 291L0 249L0 249L0 208L0 208L0 166L0 166L0 125L0 125L0 83L0 83L0 42L0 42L0 0L0 0Z" fill="#def8ce"></path><path d="M648 0L678 0L678 42L549 42L549 83L635 83L635 125L820 125L820 166L585 166L585 208L561 208L561 249L573 249L573 291L530 291L530 332L620 332L620 374L724 374L724 415L557 415L557 457L603 457L603 498L553 498L553 540L0 540L0 498L0 498L0 457L0 457L0 415L0 415L0 374L0 374L0 332L0 332L0 291L0 291L0 249L0 249L0 208L0 208L0 166L0 166L0 125L0 125L0 83L0 83L0 42L0 42L0 0L0 0Z" fill="#d8f7c5"></path><path d="M594 0L649 0L649 42L606 42L606 83L453 83L453 125L483 125L483 166L548 166L548 208L694 208L694 249L536 249L536 291L487 291L487 332L652 332L652 374L501 374L501 415L598 415L598 457L681 457L681 498L549 498L549 540L0 540L0 498L0 498L0 457L0 457L0 415L0 415L0 374L0 374L0 332L0 332L0 291L0 291L0 249L0 249L0 208L0 208L0 166L0 166L0 125L0 125L0 83L0 83L0 42L0 42L0 0L0 0Z" fill="#d3f5bb"></path><path d="M336 0L390 0L390 42L567 42L567 83L526 83L526 125L389 125L389 166L492 166L492 208L367 208L367 249L499 249L499 291L316 291L316 332L345 332L345 374L577 374L577 415L581 415L581 457L334 457L334 498L411 498L411 540L0 540L0 498L0 498L0 457L0 457L0 415L0 415L0 374L0 374L0 332L0 332L0 291L0 291L0 249L0 249L0 208L0 208L0 166L0 166L0 125L0 125L0 83L0 83L0 42L0 42L0 0L0 0Z" fill="#cdf4b2"></path><path d="M401 0L399 0L399 42L375 42L375 83L323 83L323 125L303 125L303 166L279 166L279 208L260 208L260 249L405 249L405 291L231 291L231 332L266 332L266 374L250 374L250 415L439 415L439 457L427 457L427 498L283 498L283 540L0 540L0 498L0 498L0 457L0 457L0 415L0 415L0 374L0 374L0 332L0 332L0 291L0 291L0 249L0 249L0 208L0 208L0 166L0 166L0 125L0 125L0 83L0 83L0 42L0 42L0 0L0 0Z" fill="#c8f3a8"></path><path d="M250 0L242 0L242 42L217 42L217 83L216 83L216 125L260 125L260 166L289 166L289 208L295 208L295 249L238 249L238 291L188 291L188 332L320 332L320 374L143 374L143 415L329 415L329 457L135 457L135 498L152 498L152 540L0 540L0 498L0 498L0 457L0 457L0 415L0 415L0 374L0 374L0 332L0 332L0 291L0 291L0 249L0 249L0 208L0 208L0 166L0 166L0 125L0 125L0 83L0 83L0 42L0 42L0 0L0 0Z" fill="#c2f19e"></path><path d="M154 0L199 0L199 42L158 42L158 83L143 83L143 125L20 125L20 166L151 166L151 208L209 208L209 249L174 249L174 291L171 291L171 332L31 332L31 374L227 374L227 415L104 415L104 457L67 457L67 498L211 498L211 540L0 540L0 498L0 498L0 457L0 457L0 415L0 415L0 374L0 374L0 332L0 332L0 291L0 291L0 249L0 249L0 208L0 208L0 166L0 166L0 125L0 125L0 83L0 83L0 42L0 42L0 0L0 0Z" fill="#bdf094"></path></svg>