<svg xmlns="http://www.w3.org/2000/svg" version="1.1" xmlns:xlink="http://www.w3.org/1999/xlink" xmlns:svgjs="http://svgjs.com/svgjs" width="1440" height="560" preserveAspectRatio="none" viewBox="0 0 1440 560"><g mask="url(&quot;#SvgjsMask1687&quot;)" fill="none"><rect width="1440" height="560" x="0" y="0" fill="url(#SvgjsLinearGradient1688)"></rect><path d="M215 59L214 367" stroke-width="8" stroke="url(#SvgjsLinearGradient1689)" stroke-linecap="round" class="Down"></path><path d="M90 187L89 567" stroke-width="8" stroke="url(#SvgjsLinearGradient1690)" stroke-linecap="round" class="Up"></path><path d="M182 163L181 -30" stroke-width="6" stroke="url(#SvgjsLinearGradient1690)" stroke-linecap="round" class="Up"></path><path d="M673 424L672 780" stroke-width="8" stroke="url(#SvgjsLinearGradient1690)" stroke-linecap="round" class="Up"></path><path d="M1363 466L1362 835" stroke-width="10" stroke="url(#SvgjsLinearGradient1690)" stroke-linecap="round" class="Up"></path><path d="M472 198L471 -147" stroke-width="8" stroke="url(#SvgjsLinearGradient1690)" stroke-linecap="round" class="Up"></path><path d="M525 521L524 145" stroke-width="8" stroke="url(#SvgjsLinearGradient1690)" stroke-linecap="round" class="Up"></path><path d="M872 29L871 224" stroke-width="10" stroke="url(#SvgjsLinearGradient1690)" stroke-linecap="round" class="Up"></path><path d="M1194 197L1193 -215" stroke-width="10" stroke="url(#SvgjsLinearGradient1690)" stroke-linecap="round" class="Up"></path><path d="M191 333L190 515" stroke-width="10" stroke="url(#SvgjsLinearGradient1690)" stroke-linecap="round" class="Up"></path><path d="M585 94L584 387" stroke-width="10" stroke="url(#SvgjsLinearGradient1690)" stroke-linecap="round" class="Up"></path><path d="M1222 528L1221 803" stroke-width="10" stroke="url(#SvgjsLinearGradient1690)" stroke-linecap="round" class="Up"></path><path d="M559 465L558 684" stroke-width="10" stroke="url(#SvgjsLinearGradient1689)" stroke-linecap="round" class="Down"></path><path d="M316 333L315 592" stroke-width="8" stroke="url(#SvgjsLinearGradient1689)" stroke-linecap="round" class="Down"></path><path d="M1380 5L1379 165" stroke-width="8" stroke="url(#SvgjsLinearGradient1689)" stroke-linecap="round" class="Down"></path><path d="M792 118L791 -270" stroke-width="6" stroke="url(#SvgjsLinearGradient1690)" stroke-linecap="round" class="Up"></path><path d="M824 525L823 106" stroke-width="8" stroke="url(#SvgjsLinearGradient1690)" stroke-linecap="round" class="Up"></path><path d="M554 18L553 222" stroke-width="6" stroke="url(#SvgjsLinearGradient1689)" stroke-linecap="round" class="Down"></path><path d="M1287 152L1286 323" stroke-width="8" stroke="url(#SvgjsLinearGradient1689)" stroke-linecap="round" class="Down"></path><path d="M794 546L793 815" stroke-width="6" stroke="url(#SvgjsLinearGradient1689)" stroke-linecap="round" class="Down"></path><path d="M813 203L812 56" stroke-width="10" stroke="url(#SvgjsLinearGradient1689)" stroke-linecap="round" class="Down"></path><path d="M807 276L806 -13" stroke-width="8" stroke="url(#SvgjsLinearGradient1690)" stroke-linecap="round" class="Up"></path><path d="M467 381L466 679" stroke-width="8" stroke="url(#SvgjsLinearGradient1689)" stroke-linecap="round" class="Down"></path><path d="M294 232L293 -147" stroke-width="10" stroke="url(#SvgjsLinearGradient1690)" stroke-linecap="round" class="Up"></path><path d="M14 527L13 676" stroke-width="10" stroke="url(#SvgjsLinearGradient1689)" stroke-linecap="round" class="Down"></path><path d="M1125 538L1124 820" stroke-width="10" stroke="url(#SvgjsLinearGradient1689)" stroke-linecap="round" class="Down"></path><path d="M182 149L181 342" stroke-width="6" stroke="url(#SvgjsLinearGradient1690)" stroke-linecap="round" class="Up"></path><path d="M1313 252L1312 61" stroke-width="6" stroke="url(#SvgjsLinearGradient1690)" stroke-linecap="round" class="Up"></path><path d="M1081 53L1080 -93" stroke-width="10" stroke="url(#SvgjsLinearGradient1690)" stroke-linecap="round" class="Up"></path><path d="M339 191L338 -19" stroke-width="10" stroke="url(#SvgjsLinearGradient1689)" stroke-linecap="round" class="Down"></path><path d="M1034 333L1033 645" stroke-width="8" stroke="url(#SvgjsLinearGradient1690)" stroke-linecap="round" class="Up"></path><path d="M837 111L836 -274" stroke-width="8" stroke="url(#SvgjsLinearGradient1690)" stroke-linecap="round" class="Up"></path><path d="M1215 97L1214 -293" stroke-width="6" stroke="url(#SvgjsLinearGradient1689)" stroke-linecap="round" class="Down"></path><path d="M374 89L373 398" stroke-width="10" stroke="url(#SvgjsLinearGradient1689)" stroke-linecap="round" class="Down"></path><path d="M778 333L777 669" stroke-width="6" stroke="url(#SvgjsLinearGradient1689)" stroke-linecap="round" class="Down"></path><path d="M1339 9L1338 -161" stroke-width="10" stroke="url(#SvgjsLinearGradient1689)" stroke-linecap="round" class="Down"></path></g><defs><mask id="SvgjsMask1687"><rect width="1440" height="560" fill="#ffffff"></rect></mask><linearGradient x1="15.28%" y1="-39.29%" x2="84.72%" y2="139.29%" gradientUnits="userSpaceOnUse" id="SvgjsLinearGradient1688"><stop stop-color="#0e2a47" offset="0"></stop><stop stop-color="rgba(97, 101, 105, 1)" offset="1"></stop></linearGradient><linearGradient x1="0%" y1="0%" x2="0%" y2="100%" id="SvgjsLinearGradient1689"><stop stop-color="rgba(28, 83, 142, 0)" offset="0"></stop><stop stop-color="#1c538e" offset="1"></stop></linearGradient><linearGradient x1="0%" y1="100%" x2="0%" y2="0%" id="SvgjsLinearGradient1690"><stop stop-color="rgba(28, 83, 142, 0)" offset="0"></stop><stop stop-color="#1c538e" offset="1"></stop></linearGradient></defs></svg>